<!-- Generated by IcoMoon.io -->
<svg version="1.1" xmlns="http://www.w3.org/2000/svg" width="32" height="32" viewBox="0 0 32 32">
<title>gap-cover</title>
<path d="M15.467 0h-0.853l5.12 5.12 1.813-1.813c4.373 2.027 7.467 6.293 8 11.307h2.027c-0.747-8.107-7.68-14.613-16.107-14.613z"></path>
<path d="M10.027 28.587c-4.373-2.027-7.467-6.293-8-11.307h-2.027c0.64 8.213 7.573 14.72 16 14.72h0.853l-5.12-5.12-1.707 1.707z"></path>
<path d="M16.96 11.947h-1.92v3.093h-3.093v1.92h3.093v3.093h1.92v-3.093h3.093v-1.92h-3.093z"></path>
<path d="M21.44 8.32h-10.88c-1.173 0-2.24 0.96-2.24 2.24v10.88c0 1.173 0.96 2.24 2.24 2.24h10.88c1.173 0 2.24-0.96 2.24-2.24v-10.88c0-1.173-1.067-2.24-2.24-2.24zM22.4 21.44c0 0.533-0.427 0.96-0.96 0.96h-10.88c-0.533 0-0.96-0.427-0.96-0.96v-10.88c0-0.533 0.427-0.96 0.96-0.96h10.88c0.533 0 0.96 0.427 0.96 0.96v10.88z"></path>
</svg>
