<!-- Generated by IcoMoon.io -->
<svg version="1.1" xmlns="http://www.w3.org/2000/svg" width="32" height="32" viewBox="0 0 32 32">
<title>group-risk</title>
<path d="M29.77 16.388c-0.582-0.582-1.358-1.067-2.133-1.358 1.067-0.679 1.745-1.939 1.745-3.297 0-2.23-1.745-3.976-3.976-3.976s-3.879 1.745-3.879 3.879c0 1.358 0.679 2.618 1.745 3.297-0.679 0.291-1.358 0.679-1.939 1.261-0.873-0.776-1.939-1.358-3.103-1.745 1.842-0.97 3.006-2.812 3.006-5.042 0.097-3.006-2.424-5.527-5.527-5.527s-5.624 2.521-5.624 5.624c0 2.133 1.261 4.073 3.006 5.042-1.164 0.388-2.133 0.97-3.103 1.745-0.582-0.582-1.261-0.97-1.939-1.261 1.067-0.679 1.842-1.939 1.842-3.297 0-2.23-1.745-3.976-3.976-3.976s-3.879 1.745-3.879 3.879c0 1.358 0.679 2.618 1.842 3.297-2.23 0.873-3.879 3.103-3.879 5.624v2.133l0.485 0.291c1.358 0.873 3.394 1.261 5.527 1.261 0 0 0 0 0 0 0.388 0 0.679 0 0.97-0.097v1.552l0.485 0.485c1.939 1.261 4.945 2.036 8.242 2.036s6.303-0.776 8.242-2.036l0.485-0.291v-1.648c0.388 0 0.679 0 1.067 0 2.133 0 4.17-0.485 5.527-1.261l0.485-0.291v-2.133c0-1.552-0.582-3.006-1.745-4.17zM25.503 9.6c1.067 0 2.036 0.873 2.036 2.036s-0.873 2.036-2.036 2.036-2.036-0.873-2.036-2.036 0.97-2.036 2.036-2.036zM12.121 9.503c0-2.036 1.649-3.685 3.685-3.685 1.939 0 3.588 1.649 3.588 3.685s-1.648 3.685-3.685 3.685-3.588-1.649-3.588-3.685zM6.012 9.6c1.067 0 2.036 0.873 2.036 2.036s-0.873 2.036-2.036 2.036-2.036-0.873-2.036-2.036 0.873-2.036 2.036-2.036zM29.576 21.624c-1.067 0.485-2.521 0.776-4.073 0.776-0.679 0-1.261 0-1.842-0.097l-1.164-0.194v2.715c-1.648 0.873-4.17 1.455-6.788 1.455s-5.139-0.485-6.788-1.455v-2.715l-1.067 0.194c-0.582 0.097-1.261 0.097-1.842 0.194-1.551 0-3.006-0.291-4.073-0.776v-1.067c0-2.23 1.842-4.073 4.073-4.073 1.358 0 2.521 0.582 3.297 1.648l0.679 0.97 0.776-0.873c1.261-1.455 3.103-2.23 4.945-2.23s3.685 0.776 4.945 2.23l0.776 0.873 0.679-0.97c0.776-1.067 2.036-1.648 3.297-1.648 1.067 0 2.133 0.388 2.909 1.261 0.776 0.776 1.164 1.842 1.164 2.909v0.873z"></path>
</svg>
