<!-- Generated by IcoMoon.io -->
<svg version="1.1" xmlns="http://www.w3.org/2000/svg" width="32" height="32" viewBox="0 0 32 32">
<title>healthcare-fund</title>
<path d="M27.947 29.333h-24.533c-2.24 0-3.413-3.2-3.413-4.907v-18.987c0-0.96 0.427-2.773 3.52-2.773h6.080c1.387 0 3.307 0.64 4.373 1.92l0.747 0.747c0.64 0.747 1.6 1.387 1.92 1.387h11.307c1.173 0 4.16 0 4.16 2.56v15.147c0 1.92-2.027 4.907-4.16 4.907zM3.52 4.907c-1.28 0-1.28 0.213-1.28 0.533v18.987c0 1.173 0.853 2.56 1.28 2.56h24.533c0.533 0 1.92-1.707 1.92-2.56v-15.147c-0.107-0.213-0.533-0.32-1.92-0.32h-11.413c-1.707 0-3.52-2.027-3.52-2.133l-0.747-0.747c-0.64-0.64-1.813-1.173-2.773-1.173h-6.080z"></path>
<path d="M21.013 19.2h-3.52v3.627h-2.88v-3.627h-3.52v-2.133h3.52v-3.627h2.88v3.627h3.52z"></path>
</svg>
