<!-- Generated by IcoMoon.io -->
<svg version="1.1" xmlns="http://www.w3.org/2000/svg" width="32" height="32" viewBox="0 0 32 32">
<title>healthy-company</title>
<path d="M20.232 14.142c-2.89 0-5.265-2.374-5.265-5.265s2.374-5.265 5.265-5.265 5.265 2.374 5.265 5.265c-0.103 2.89-2.374 5.265-5.265 5.265zM20.232 5.884c-1.652 0-2.994 1.342-2.994 3.097 0 1.652 1.342 3.097 2.994 3.097s2.994-1.342 2.994-3.097c0-1.755-1.342-3.097-2.994-3.097z"></path>
<path d="M8.981 12.697c-2.477 0-4.439-2.065-4.439-4.542s1.961-4.542 4.439-4.542 4.439 2.065 4.439 4.542c0 2.477-1.961 4.542-4.439 4.542zM8.981 5.884c-1.239 0-2.271 1.032-2.271 2.271s1.032 2.271 2.271 2.271c1.239 0 2.271-1.032 2.271-2.271s-1.032-2.271-2.271-2.271z"></path>
<path d="M1.135 24.052c-0.619 0-1.135-0.516-1.135-1.135 0-5.161 4.645-9.394 10.426-9.394 1.652 0 3.2 0.31 4.645 1.032 0.516 0.206 0.826 0.929 0.516 1.445-0.206 0.516-0.929 0.826-1.445 0.516-1.135-0.516-2.374-0.826-3.716-0.826-4.542 0-8.155 3.2-8.155 7.226 0 0.619-0.516 1.135-1.135 1.135z"></path>
<path d="M31.071 28.594c-0.619 0-1.135-0.516-1.135-1.135 0-5.265-4.232-9.497-9.394-9.497s-9.394 4.232-9.394 9.497c0 0.619-0.516 1.135-1.135 1.135s-1.135-0.516-1.135-1.135c0-6.503 5.161-11.665 11.561-11.665s11.561 5.265 11.561 11.665c0.206 0.619-0.31 1.135-0.929 1.135z"></path>
</svg>
