<!-- Generated by IcoMoon.io -->
<svg version="1.1" xmlns="http://www.w3.org/2000/svg" width="33" height="32" viewBox="0 0 33 32">
<title>medical-aid</title>
<path d="M17.714 18.286v-2.857h-2.286v2.857h-2.857v2.286h2.857v2.857h2.286v-2.857h2.857v-2.286z"></path>
<path d="M7.314 7.314v0 0z"></path>
<path d="M26.857 7.314h-0.343v-2.4c0-2.629-2.171-4.914-4.571-4.914h-10.171c-2.4 0-4.457 2.286-4.457 4.914v2.4h-1.029c-3.543 0-6.286 2.743-6.286 6.286v12c0 3.086 2.171 5.6 5.257 5.943 0.114 0 0.229 0 0.343 0 0.229 0 0.457 0 0.686 0h20.686l0.457-0.114c0.114 0 0.229 0 0.343 0 0 0 0 0 0.114 0h0.114c3.086-0.457 5.257-2.971 5.257-5.943v-11.886c-0.114-3.543-2.857-6.286-6.4-6.286zM9.6 4.914c0-1.371 1.029-2.629 2.171-2.629h10.171c1.143 0 2.286 1.371 2.286 2.629v2.4h-14.629v-2.4zM30.857 25.6c0 1.714-1.029 3.086-2.514 3.543l-0.914 0.229c-0.114 0-0.114 0-0.343 0 0 0-0.114 0-0.229 0h-20.571c-0.114 0-0.229 0-0.343 0h-0.229c-2.057-0.229-3.429-1.829-3.429-3.771v-12c0-2.171 1.714-4 4-4h20.571c2.171 0 4 1.714 4 4v12z"></path>
</svg>
