<!-- Generated by IcoMoon.io -->
<svg version="1.1" xmlns="http://www.w3.org/2000/svg" width="24" height="32" viewBox="0 0 24 32">
<title>retirement-fund</title>
<path d="M8.824 5.818c-0.388 0-0.679-0.388-0.679-0.776v-2.036c0-0.388 0.291-0.679 0.679-0.679s0.679 0.291 0.679 0.679v2.036c0 0.388-0.291 0.776-0.679 0.776z"></path>
<path d="M5.624 5.818c-0.388 0-0.679-0.388-0.679-0.776v-2.036c0-0.388 0.291-0.679 0.679-0.679s0.679 0.291 0.679 0.679v2.036c0 0.388-0.291 0.776-0.679 0.776z"></path>
<path d="M12.024 5.818c-0.388 0-0.679-0.291-0.679-0.679v-2.133c0-0.388 0.291-0.679 0.679-0.679s0.679 0.291 0.679 0.679v2.036c0 0.388-0.291 0.776-0.679 0.776z"></path>
<path d="M15.321 5.818c-0.388 0-0.776-0.388-0.776-0.776v-2.036c0-0.388 0.291-0.679 0.679-0.679s0.679 0.291 0.679 0.679v2.036c0.097 0.388-0.291 0.776-0.582 0.776z"></path>
<path d="M18.133 5.818c-0.388 0-0.679-0.388-0.679-0.776v-2.036c0-0.388 0.291-0.679 0.679-0.679s0.679 0.291 0.679 0.679v2.036c0 0.388-0.291 0.776-0.679 0.776z"></path>
<path d="M13.479 19.006v-4.655c1.261 0.291 2.23 1.164 2.23 2.23 0 0.388 0.388 0.776 0.776 0.776s0.776-0.388 0.776-0.776c0-1.939-1.649-3.491-3.782-3.879v-0.388c0-0.388-0.388-0.776-0.776-0.776s-0.776 0.388-0.776 0.776v0.388c-2.23 0.291-3.976 1.939-3.976 3.879s1.745 3.588 3.976 3.879v4.655c-1.261-0.291-2.23-1.261-2.23-2.327 0-0.388-0.388-0.776-0.776-0.776s-0.776 0.388-0.776 0.776c0 1.939 1.649 3.491 3.782 3.879v0.388c0 0.388 0.388 0.776 0.776 0.776s0.776-0.388 0.776-0.776v-0.388c2.23-0.291 3.976-1.939 3.976-3.879s-1.745-3.491-3.976-3.782zM11.927 18.812c-1.358-0.291-2.424-1.164-2.424-2.327s1.067-2.036 2.424-2.327v4.655zM13.479 25.115v-4.558c1.358 0.291 2.424 1.164 2.424 2.327 0 1.067-1.067 1.939-2.424 2.23z"></path>
<path d="M18.327 8.145h-12.897c-2.23 0-4.073-1.842-4.073-4.073s1.842-4.073 4.073-4.073h12.897c2.23 0 4.073 1.842 4.073 4.073s-1.842 4.073-4.073 4.073zM5.43 1.745c-1.358 0-2.424 1.067-2.424 2.424s1.067 2.327 2.424 2.327h12.897c1.358 0 2.327-1.067 2.327-2.327 0-1.358-1.067-2.424-2.327-2.424h-12.897z"></path>
<path d="M16.776 6.788h-9.794c-3.879 0-6.982 3.103-6.982 6.982v11.152c0 3.879 3.103 6.982 6.982 6.982h9.891c3.879 0 6.982-3.103 6.982-6.982v-11.152c-0.097-3.879-3.2-6.982-7.079-6.982zM22.109 24.921c0 2.909-2.327 5.236-5.236 5.236h-9.891c-2.909 0-5.236-2.327-5.236-5.236v-11.152c0-2.909 2.327-5.236 5.236-5.236h9.891c2.909 0 5.236 2.327 5.236 5.236v11.152z"></path>
</svg>
