<!-- Generated by IcoMoon.io -->
<svg version="1.1" xmlns="http://www.w3.org/2000/svg" width="28" height="32" viewBox="0 0 28 32">
<title>vitality</title>
<path d="M28.251 27.886v0c-0.183-0.366-0.549-0.549-1.006-0.457-0.183 0-0.274 0-0.914 0.183-0.183 0-0.274 0.091-0.366 0.091-0.457 0.091-0.914 0.183-1.28 0.183s-0.549-0.091-0.549-0.091c-0.64-1.463-1.737-4.297-1.737-4.846-0.091-1.097-0.457-2.286-1.006-3.017-1.189-1.646-2.377-3.109-2.834-3.749-0.274-0.366-0.366-0.457-0.549-0.64 0.091-0.274 0.183-0.366 0.183-0.457 0.091-0.274 0.183-0.731 0.274-0.914s0.183-0.549 0.274-1.189c0-0.091 0.091-0.457 0.091-0.64 0-0.274 0.183-0.64 0.274-1.006 0.366 0.64 0.914 1.006 1.463 1.189 0.64 0.091 1.646-0.183 2.377-0.64 0.64-0.366 1.28-0.64 1.646-0.731 0.457 0 0.731-0.183 1.006-0.457 0.091-0.091 0.183-0.274 0.274-0.274 0.366-0.457 0.366-0.823 0.091-1.28 0-0.091-0.091-0.091-0.091-0.091-0.091-0.091-0.091-0.091-0.091-0.183 0-0.274-0.183-0.366-0.366-0.457-0.091-0.091-0.091-0.183-0.183-0.183s-0.274-0.183-0.274-0.183c-0.091 0-0.091-0.091-0.091-0.091-0.549-0.457-1.28 0.091-1.646 0.914 0 0-0.183 0.366-0.183 0.549-0.366 0.091-1.371 0.274-1.737 0.366-0.183-0.366-0.366-0.823-0.731-1.463-0.091-0.091-0.274-0.366-0.274-0.457-0.183-0.274-0.274-0.549-0.274-0.914 0-0.64-0.457-1.097-1.097-1.554 0-0.091 0-0.091 0-0.183 0 0 0.091 0 0.091 0 0.274 0 0.457 0 0.731-0.183s0.366-0.549 0.366-0.823c-0.091 0.091 0-0.091 0-0.183s0.091-0.183 0.091-0.183c0 0 0.091 0 0.091-0.091 0.274-0.366 0.274-0.731 0-1.006 0 0-0.091-0.091-0.091-0.091s0 0.091 0 0.091c0 0 0-0.091 0-0.091 0.091-0.183 0.091-0.457 0-0.731 0-0.091-0.091-0.183-0.091-0.274-0.091-0.183-0.091-0.274-0.183-0.457-0.183-0.457-0.549-0.823-0.914-0.914-0.823-0.274-1.829-0.274-2.377 0.091-0.64 0.457-1.006 1.006-1.097 1.829 0 0.549 0 0.914 0.274 1.28 0 0 0 0.091 0.091 0.091 0 0.091 0 0.091 0.091 0.183 0.091 0.274 0.183 0.549 0.091 0.731 0 0.091-0.183 0.366-0.366 0.64-0.091 0-0.183 0.091-0.274 0.091s-0.091 0-0.091 0c-0.274 0-0.64 0.183-1.097 0.366-0.091 0.091-0.183 0.091-0.366 0.183-0.549 0.091-1.097 0.366-1.097 0.366-0.091 0-1.189 0.549-1.28 0.64 0 0 0 0-0.091 0-0.366 0.183-0.64 0.366-0.914 0.457-0.823 0.366-1.463 0.914-1.646 1.554-0.183 0.549 0.183 1.646 0.64 2.377 0.366 0.64 0.64 1.28 0.731 1.646 0 0.457 0.183 0.731 0.457 1.006 0.091 0.091 0.274 0.183 0.274 0.274 0.457 0.366 0.823 0.366 1.28 0.091 0.091 0 0.091-0.091 0.091-0.091 0.091-0.091 0.091-0.091 0.183-0.091 0.274 0 0.366-0.183 0.549-0.366 0.091-0.091 0.091-0.091 0.183-0.183 0 0 0.183-0.183 0.183-0.274 0 0 0 0 0 0s0 0 0 0 0 0 0 0v0c0-0.091 0 0 0 0s0.091-0.091 0.091-0.091c0.549-0.549-0.091-1.28-0.823-1.646 0 0-0.366-0.183-0.549-0.183 0-0.366-0.183-1.371-0.274-1.646 0.366-0.091 0.823-0.366 1.463-0.64 0 0.274 0 0.457 0.091 0.731 0.274 1.463 0.549 3.2 0.457 3.474 0 0.091-0.183 0.274-0.457 0.64-0.366 0.457-0.549 0.64-0.64 0.823-0.366 0.64-0.366 1.189-0.183 1.829 0.091 0.183 0.183 0.366 0.366 0.549-0.183 0.366-0.549 1.006-0.64 1.371-0.366 0.731-0.64 1.28-0.731 1.463s-0.091 0.274-0.183 0.366c-0.731-0.274-2.103-0.731-2.743-0.823-0.823-0.091-1.463-0.183-2.286-0.091-0.366 0-0.914-0.091-1.097-0.091 0-0.091 0-0.183-0.091-0.549-0.183-0.64-0.274-0.914-0.64-1.097-0.64-0.366-1.829 0.183-2.194 1.097-0.091 0.274-0.366 0.549-0.823 0.823-0.091 0-0.274 0.183-0.366 0.274-0.091 0-0.091 0-0.091 0.091-0.64 0.457-1.189 1.463-1.097 2.103 0.091 0.549 0.457 0.823 0.914 0.731 0.274 0 0.457-0.091 0.823-0.274 0.091-0.183 0.731-0.549 1.006-0.64 0.091-0.091 0.183-0.091 0.274-0.183 0.457-0.183 0.914-0.366 0.914-0.366 0.183 0.091 2.103 0.823 2.377 1.006 0.183 0.091 0.457 0.183 0.64 0.274 0.274 0.091 0.549 0.274 0.823 0.366 1.371 0.731 4.114 1.28 4.754 1.006 0.549-0.183 2.011-2.103 2.469-3.017 0.091-0.183 0.274-0.457 0.64-0.914 0.183 0.091 0.274 0.274 0.549 0.366 0 0 0 0 0.091 0.091 1.371 1.006 1.92 1.463 1.92 1.554 0.183 0.549 0.457 1.463 0.823 2.286 0.457 1.28 1.006 2.194 1.463 2.834 0.091 0.091 0.183 0.274 0.366 0.366 0.091 0.091 0.274 0.366 0.366 0.457 0.274 0.274 0.366 0.457 0.549 0.64 0.091 0.183 0.183 0.366 0.274 0.549 0 0.091 0.091 0.823 0.183 1.097 0.183 1.097 0.457 1.737 1.189 1.829 0.823 0.183 1.737-0.457 2.377-1.097 0.091-0.091 0.274-0.183 0.64-0.457 0.091 0 0.091 0 0.183-0.091s0.274-0.183 0.457-0.274c0.183-0.091 0.274-0.183 0.366-0.183 0.549-0.457 1.097-1.28 0.823-2.011zM25.783 8.869v0c-0.091 0-0.091 0 0 0-0.091 0-0.091 0 0 0zM19.566 3.017c0 0 0 0 0 0v0c0 0 0 0 0 0zM26.697 28.983c-0.091 0-0.183 0.091-0.366 0.183-0.274 0.091-0.366 0.183-0.549 0.274-0.091 0-0.091 0-0.183 0.091-0.457 0.274-0.731 0.457-0.914 0.64-0.366 0.457-1.097 0.914-1.371 0.823 0 0-0.183-0.366-0.366-1.006 0-0.274-0.183-1.006-0.183-1.097-0.091-0.274-0.183-0.549-0.366-0.823s-0.366-0.457-0.64-0.731c-0.091-0.091-0.274-0.366-0.366-0.457-0.091-0.183-0.183-0.274-0.274-0.366-0.366-0.549-0.823-1.463-1.371-2.651-0.366-0.823-0.64-1.646-0.823-2.194-0.183-0.457-0.457-0.731-2.377-2.103 0 0 0 0-0.091-0.091-0.457-0.274-0.64-0.457-0.914-0.64l-0.457-0.366-0.366 0.457c-0.091 0.091-0.091 0.091-0.366 0.457-0.366 0.457-0.549 0.731-0.64 1.006-0.091 0.64-1.463 2.469-1.646 2.469-0.274 0.091-2.743-0.457-3.84-1.006-0.274-0.091-0.549-0.274-0.823-0.366-0.183-0.091-0.366-0.183-0.64-0.274-0.366-0.183-2.194-0.823-2.286-0.914-0.366-0.183-0.914-0.091-1.829 0.366-0.091 0.091-0.183 0.091-0.274 0.183-0.274 0.091-1.006 0.549-1.006 0.549s-0.091 0-0.091 0.091c0.091-0.274 0.366-0.64 0.64-0.823 0.091 0 0.091 0 0.091-0.091 0.091 0 0.274-0.183 0.366-0.274 0.549-0.366 0.914-0.731 1.097-1.28 0.183-0.366 0.64-0.64 0.731-0.64 0 0 0 0.183 0.091 0.457 0 0.091 0.091 0.549 0.091 0.549 0.091 0.366 0.091 0.366 0.274 0.549 0.274 0.274 1.189 0.457 1.92 0.457 0.823 0 1.371 0 2.011 0.091 0.549 0.091 2.194 0.64 2.743 0.823 0.457 0.183 0.731 0 0.914-0.366 0.091-0.183 0.091-0.183 0.274-0.64 0.091-0.183 0.274-0.731 0.731-1.463 0.183-0.274 0.64-1.371 0.731-1.463 0.183-0.366 0.091-0.64-0.183-0.823-0.091-0.091-0.183-0.183-0.183-0.183-0.091-0.091-0.091-0.091-0.091-0.091-0.091-0.366-0.091-0.64 0.091-1.006 0.091-0.091 0.183-0.274 0.549-0.64 0.366-0.457 0.549-0.64 0.64-0.914 0.183-0.549-0.091-2.377-0.457-4.023-0.091-0.366-0.091-0.731 0-1.28l0.183-0.914-0.823 0.274c-0.183 0.091-0.274 0.091-0.457 0.183 0 0-0.274 0.183-0.366 0.183-0.731 0.274-1.463 0.64-1.554 0.64-0.366 0.091-0.549 0.366-0.549 0.64 0 0.183 0 0.274 0.091 0.549s0.274 1.189 0.274 1.463c0 0.366 0.274 0.549 0.64 0.731 0.091 0.091 0.549 0.274 0.457 0.274 0.091 0.091 0.274 0.183 0.366 0.274 0 0 0 0 0 0v0c0 0 0 0 0 0s-0.091 0.091-0.091 0.183c-0.091 0.091-0.183 0.091-0.274 0.274 0.091 0 0.183 0 0.274 0-0.183 0-0.274 0.091-0.274 0.183 0-0.091 0.091-0.091 0.091-0.091-0.091 0-0.274 0.091-0.366 0.183 0 0-0.091 0-0.091 0.091 0 0-0.183-0.183-0.274-0.183-0.091-0.091-0.091-0.183-0.091-0.366 0-0.549-0.366-1.371-0.823-2.103-0.366-0.549-0.549-1.28-0.457-1.554s0.457-0.64 1.006-0.823c0.274-0.091 0.549-0.274 0.914-0.457 0 0 0 0 0.091 0 0.183-0.091 1.189-0.549 1.28-0.64 0.091 0 0.731-0.366 0.914-0.457 0.091-0.091 0.183-0.091 0.274-0.183 0.366-0.183 0.64-0.274 0.731-0.274h0.183c0 0 0.091 0 0.183-0.091 0.274-0.091 0.366-0.183 0.549-0.274l0.183-0.183c0.274-0.457 0.549-0.823 0.549-1.097 0.091-0.457 0-0.823-0.183-1.28 0-0.091 0-0.091-0.091-0.183 0-0.091-0.091-0.091-0.091-0.274-0.274-0.457-0.366-0.64-0.274-1.006 0-0.457 0.183-0.731 0.64-1.006 0.274-0.183 0.914-0.183 1.463 0 0.091 0.091 0.274 0.183 0.366 0.457 0 0.274 0 0.274 0.091 0.64 0 0.091 0 0.183 0 0.183-0.091 0.274 0 0.549 0.183 0.823-0.091 0.091-0.091 0.274-0.091 0.366-0.091 0.091-0.091 0.183-0.091 0.274 0 0 0-0.091 0.091-0.091-0.091 0.091-0.091 0.183 0 0.366 0 0-0.091-0.091-0.091-0.183 0 0 0-0.091 0-0.091-0.091 0.091-0.091 0.183-0.091 0.366-0.091 0-0.091 0-0.091 0-0.366-0.091-0.823 0.183-0.914 0.549 0 0.091 0 0.183-0.091 0.457 0 0.091 0 0.274-0.091 0.366l-0.091 0.366 0.366 0.183c0.549 0.274 0.914 0.549 0.914 0.823 0 0.549 0.183 0.914 0.457 1.371 0 0 0.183 0.274 0.183 0.366 0.366 0.64 0.64 1.371 0.731 1.463 0.091 0.366 0.366 0.549 0.731 0.549 0.183 0 0.274 0 0.549-0.091s1.189-0.274 1.554-0.274c0.366-0.091 0.549-0.274 0.823-0.64 0.091-0.091 0.183-0.457 0.183-0.457 0.091-0.091 0.183-0.274 0.274-0.366 0 0-0.091-0.091-0.091-0.091 0.091 0 0.091 0 0.183 0 0 0 0 0 0 0s0 0 0 0 0.091 0.091 0.183 0.091c0.091 0.091 0.183 0.183 0.274 0.274 0-0.091 0-0.183 0-0.274 0 0.183 0.091 0.274 0.183 0.274-0.091 0-0.091 0-0.091-0.091 0 0.091 0.091 0.274 0.183 0.366 0 0 0 0 0 0s0 0 0 0 0 0.091 0.091 0.091c0 0-0.183 0.183-0.183 0.274-0.091 0.091-0.183 0.091-0.366 0.183-0.549 0.091-1.371 0.366-2.103 0.914-0.549 0.366-1.371 0.549-1.646 0.549-0.274-0.091-0.64-0.366-0.914-0.914-0.091-0.183-0.183-0.274-0.366-0.64l-0.64-0.731-0.457 0.823c-0.091 0.183-0.183 0.366-0.274 0.457-0.274 0.549-0.549 1.28-0.549 1.829 0 0.091-0.091 0.64-0.091 0.64-0.091 0.457-0.091 0.731-0.183 0.823-0.183 0.274-0.274 0.823-0.366 1.189 0 0-0.091 0.274-0.274 0.549l-0.183 0.274 0.183 0.274c0.091 0.091 0.091 0.091 0.183 0.183 0.183 0.183 0.183 0.274 0.549 0.731 0.549 0.731 1.646 2.194 2.834 3.84 0.457 0.549 0.731 1.554 0.823 2.469 0.091 0.64 1.189 3.474 1.829 5.12 0.366 0.823 1.554 0.823 3.017 0.457 0.091 0 0.274-0.091 0.366-0.091 0.274-0.091 0.457-0.091 0.549-0.183 0 0.091-0.183 0.366-0.366 0.457z"></path>
</svg>
